<svg xmlns="http://www.w3.org/2000/svg" width="15.444" height="15.444" viewBox="0 0 15.444 15.444"><defs><style>.a{fill:#fff;}</style></defs><path class="a" d="M18.466,18.144h0V12.479c0-2.771-.6-4.905-3.836-4.905a3.363,3.363,0,0,0-3.029,1.665H11.56V7.833H8.489V18.143h3.2V13.038c0-1.344.255-2.644,1.92-2.644,1.64,0,1.665,1.534,1.665,2.73v5.02Z" transform="translate(-3.026 -2.7)"/><path class="a" d="M.4,7.977H3.6V18.288H.4Z" transform="translate(-0.141 -2.844)"/><path class="a" d="M1.855,0A1.863,1.863,0,1,0,3.709,1.855,1.855,1.855,0,0,0,1.855,0Z"/></svg>